<mxfile host="app.diagrams.net" modified="2023-11-29T04:18:42.447Z" agent="Mozilla/5.0 (Macintosh; Intel Mac OS X 10_15_7) AppleWebKit/537.36 (KHTML, like Gecko) Chrome/118.0.0.0 Safari/537.36" version="22.1.4" etag="dDj9IhgCPK8dOf75SNIH" type="github">
  <diagram name="Page-1" id="mL_FcHzceHCq9HNiXEnY">
    <mxGraphModel>
      <root>
        <mxCell id="0" />
        <mxCell id="1" parent="0" />
      </root>
    </mxGraphModel>
  </diagram>
</mxfile>
